<svg width="39" height="17" viewBox="0 0 39 17" fill="none" xmlns="http://www.w3.org/2000/svg">
<path d="M7.43567 1.26H0.615672V4.78H3.80567V16H7.43567V1.26ZM9.1307 10.17C9.1307 13.866 11.7047 16.33 15.1587 16.33C18.5907 16.33 21.3407 13.932 21.3407 10.17V7.046C21.3407 3.306 18.6347 0.929999 15.2247 0.929999C11.7707 0.929999 9.1307 3.328 9.1307 7.09V10.17ZM12.7607 7.09C12.7607 5.396 13.7947 4.516 15.2247 4.516C16.6547 4.516 17.7107 5.44 17.7107 7.046V10.17C17.7107 11.842 16.5887 12.7 15.1587 12.7C13.7727 12.7 12.7607 11.864 12.7607 10.17V7.09ZM26.2739 8.256C28.3199 8.256 29.9039 6.65 29.9039 4.582C29.9039 2.58 28.3199 0.929999 26.2739 0.929999C24.1839 0.929999 22.5999 2.58 22.5999 4.582C22.5999 6.65 24.1839 8.256 26.2739 8.256ZM24.0299 16H26.6259L36.9659 1.26H34.3699L24.0299 16ZM26.2739 5.99C25.5039 5.99 24.8879 5.374 24.8879 4.582C24.8879 3.834 25.5039 3.196 26.2739 3.196C27.0439 3.196 27.6819 3.834 27.6819 4.582C27.6819 5.374 27.0439 5.99 26.2739 5.99ZM34.7659 16.33C36.8119 16.33 38.3959 14.724 38.3959 12.656C38.3959 10.654 36.8119 9.004 34.7659 9.004C32.6759 9.004 31.0919 10.654 31.0919 12.656C31.0919 14.724 32.6759 16.33 34.7659 16.33ZM34.7659 14.064C33.9959 14.064 33.3799 13.448 33.3799 12.656C33.3799 11.908 33.9959 11.27 34.7659 11.27C35.5359 11.27 36.1739 11.908 36.1739 12.656C36.1739 13.448 35.5359 14.064 34.7659 14.064Z" fill="#333E48"/>
</svg>
